<svg
  xmlns="http://www.w3.org/2000/svg"
  version="1.1"
  xmlns:xlink="http://www.w3.org/1999/xlink"
  xmlns:svgjs="http://svgjs.dev/svgjs"
  width="2000"
  height="1247"
  viewBox="0 0 2000 1247"><g
  transform="matrix(1,0,0,1,-1.2121212121212466,0.504858299595071)"><svg
  viewBox="0 0 396 247"
  data-background-color="#050816"
  preserveAspectRatio="xMidYMid meet"
  height="1247"
  width="2000"
  xmlns="http://www.w3.org/2000/svg"
  xmlns:xlink="http://www.w3.org/1999/xlink"><g
  id="tight-bounds"
  transform="matrix(1,0,0,1,0.2400000000000091,-0.09999999999999432)"><svg
  viewBox="0 0 395.52 247.2"
  height="247.2"
  width="395.52"><g><svg></svg></g><g><svg
  viewBox="0 0 395.52 247.2"
  height="247.2"
  width="395.52"><g
  transform="matrix(1,0,0,1,75.54432,50.16568583690987)"><svg
  viewBox="0 0 244.43135999999998 146.86862832618024"
  height="146.86862832618024"
  width="244.43135999999998"><g><svg
  viewBox="0 0 244.43135999999998 146.86862832618024"
  height="146.86862832618024"
  width="244.43135999999998"><g><svg
  viewBox="0 0 244.43135999999998 146.86862832618024"
  height="146.86862832618024"
  width="244.43135999999998"><g><svg
  viewBox="0 0 244.43135999999998 146.86862832618024"
  height="146.86862832618024"
  width="244.43135999999998"><g
  id="textblocktransform"><svg
  viewBox="0 0 244.43135999999998 146.86862832618024"
  height="146.86862832618024"
  width="244.43135999999998"
  id="textblock"><g><svg
  viewBox="0 0 244.43135999999998 146.86862832618024"
  height="146.86862832618024"
  width="244.43135999999998"><g
  transform="matrix(1,0,0,1,0,0)"><svg
  width="244.43135999999998"
  viewBox="4.5 -35 58.25 35"
  height="146.86862832618024"
  data-palette-color="#ffffff"><path
  d="M25.3 0L4.5 0 4.5-35 9.25-35 9.25-4.25 25.3-4.25 25.3 0ZM34.55 0L30.05 0 30.05-35 36.7-35 46.4-12.85 55.95-35 62.75-35 62.75 0 58 0 58-28.95 48.65-7.9 43.95-7.9 34.55-28.95 34.55 0Z"
  opacity="1"
  transform="matrix(1,0,0,1,0,0)"
  fill="#ffffff"
  class="wordmark-text-0"
  data-fill-palette-color="primary"
  id="text-0"></path></svg></g></svg></g></svg></g></svg></g></svg></g></svg></g></svg></g><path
  d="M140.056 44.166L140.056 1.111 385.034 1.111 385.034 246.089 140.056 246.089 140.056 203.034 153.301 203.034 153.301 232.844 371.79 232.844 371.79 14.356 153.301 14.356 153.301 44.166Z"
  fill="#ffffff"
  stroke="transparent"
  data-fill-palette-color="tertiary"></path></svg></g><defs></defs></svg><rect
  width="395.52"
  height="247.2"
  fill="none"
  stroke="none"
  visibility="hidden"></rect></g></svg></g></svg>